HIERARCHY
ROOT Hips
{
  OFFSET 0.000000 100.000000 0.000000
  CHANNELS 6 Xposition Yposition Zposition Zrotation Xrotation Yrotation
  JOINT Spine
  {
    OFFSET 0.000000 15.000000 0.000000
    CHANNELS 3 Zrotation Xrotation Yrotation
    JOINT Neck
    {
      OFFSET 0.000000 30.000000 0.000000
      CHANNELS 3 Zrotation Xrotation Yrotation
      JOINT Head
      {
        OFFSET 0.000000 10.000000 0.000000
        CHANNELS 3 Zrotation Xrotation Yrotation
        End Site
        {
          OFFSET 0.000000 15.000000 0.000000
        }
      }
    }
    JOINT LeftShoulder
    {
      OFFSET 15.000000 25.000000 0.000000
      CHANNELS 3 Zrotation Xrotation Yrotation
      JOINT LeftElbow
      {
        OFFSET 28.000000 0.000000 0.000000
        CHANNELS 3 Zrotation Xrotation Yrotation
        JOINT LeftWrist
        {
          OFFSET 24.000000 0.000000 0.000000
          CHANNELS 3 Zrotation Xrotation Yrotation
          End Site
          {
            OFFSET 12.000000 0.000000 0.000000
          }
        }
      }
    }
    JOINT RightShoulder
    {
      OFFSET -15.000000 25.000000 0.000000
      CHANNELS 3 Zrotation Xrotation Yrotation
      JOINT RightElbow
      {
        OFFSET -28.000000 0.000000 0.000000
        CHANNELS 3 Zrotation Xrotation Yrotation
        JOINT RightWrist
        {
          OFFSET -24.000000 0.000000 0.000000
          CHANNELS 3 Zrotation Xrotation Yrotation
          End Site
          {
            OFFSET -12.000000 0.000000 0.000000
          }
        }
      }
    }
  }
  JOINT LeftHip
  {
    OFFSET 10.000000 0.000000 0.000000
    CHANNELS 3 Zrotation Xrotation Yrotation
    JOINT LeftKnee
    {
      OFFSET 0.000000 -42.000000 0.000000
      CHANNELS 3 Zrotation Xrotation Yrotation
      JOINT LeftAnkle
      {
        OFFSET 0.000000 -42.000000 0.000000
        CHANNELS 3 Zrotation Xrotation Yrotation
        End Site
        {
          OFFSET 0.000000 -7.000000 12.000000
        }
      }
    }
  }
  JOINT RightHip
  {
    OFFSET -10.000000 0.000000 0.000000
    CHANNELS 3 Zrotation Xrotation Yrotation
    JOINT RightKnee
    {
      OFFSET 0.000000 -42.000000 0.000000
      CHANNELS 3 Zrotation Xrotation Yrotation
      JOINT RightAnkle
      {
        OFFSET 0.000000 -42.000000 0.000000
        CHANNELS 3 Zrotation Xrotation Yrotation
        End Site
        {
          OFFSET 0.000000 -7.000000 12.000000
        }
      }
    }
  }
}
MOTION
Frames: 17
Frame Time: 0.03333333333333333
56.084907 40.241742 0.009320 0.220506 43.419504 0.087794 0.000000 0.000000 0.000000 35.270548 74.295807 27.082599 98.507946 70.571191 103.451662 -58.716487 49.752891 -40.416867 0.346295 -0.866908 0.110396 0.084930 -24.537928 0.436094 12.082391 -77.852554 56.391080 -4.406886 -53.084678 13.222793 -0.258949 -9.574489 3.295351 -43.892140 -5.031644 -90.191684 2.176618 1.707008 -6.216153 -24.256762 -11.787984 77.162168 40.895966 51.105091 72.153071 51.807986 -19.247850 -53.770621 -40.895073 -75.655040 20.048581
55.993772 40.339884 0.008065 0.015298 45.685555 -0.004831 0.000000 0.000000 0.000000 35.810220 74.235490 27.479099 102.260061 70.162216 106.568945 -55.667894 52.312581 -39.736772 0.305617 -0.823000 0.102353 0.122583 -25.439980 0.514966 -10.678319 -79.879101 73.442100 -5.460229 -54.595164 14.435927 -0.238376 -8.134090 2.884635 -42.073238 -3.285853 -91.972398 1.784227 3.908035 -13.884084 -23.614923 -9.966704 83.236156 29.555392 32.827561 53.335786 37.888986 -13.596968 -46.191935 -31.682027 -61.293757 16.363883
55.933133 40.320992 0.007485 -0.205931 46.961419 -0.104262 0.000000 0.000000 0.000000 36.385764 73.891300 27.761808 102.587623 69.497434 106.972804 -52.741237 53.372280 -38.463815 0.247037 -0.745524 0.088085 0.217145 -25.523877 0.624889 -33.600550 -81.710770 92.572001 -7.052256 -56.832793 16.198552 -0.314270 -7.920864 2.996493 -41.441675 -1.944476 -93.819959 1.343009 5.547713 -20.422651 -21.804702 -6.832222 88.383980 21.762955 18.955093 40.456605 27.511223 -8.399071 -39.286841 -29.321370 -55.576714 20.862405
55.904573 40.269917 0.007980 -0.392951 48.614475 -0.195602 0.000000 0.000000 0.000000 36.784339 74.267765 28.266836 102.643138 69.501701 107.267415 -52.109357 55.464575 -38.754455 0.194878 -0.923934 0.082837 0.331418 -26.074407 0.767087 -46.160717 -82.493841 101.988474 -7.722163 -57.685155 16.848221 -0.289601 -6.524521 2.573812 -40.059321 -1.548394 -94.825139 1.470645 6.505001 -24.624429 -21.929863 -5.619238 92.710864 16.055989 10.350955 30.429525 20.362763 -5.784150 -33.967586 -30.322684 -54.155058 24.819908
55.892122 40.174538 0.007105 -0.561197 49.536659 -0.275518 0.000000 0.000000 0.000000 37.394835 74.169488 28.699279 103.509260 68.431965 108.831865 -51.878865 57.225451 -39.060976 0.137592 -0.963670 0.070079 0.390410 -26.896730 0.904051 -55.884973 -83.184594 109.200603 -8.160117 -58.438990 16.994290 -0.289460 -5.592442 2.299278 -39.162457 -1.698363 -95.483535 1.539861 7.154655 -28.323893 -21.213177 -3.908129 95.702804 12.260922 3.627668 23.953523 15.418733 -3.306186 -31.482013 -28.181595 -50.645939 24.567559
55.862260 40.076104 0.007533 -0.733839 49.816209 -0.353579 0.000000 0.000000 0.000000 38.724797 73.938928 29.629123 100.844565 67.123326 107.399069 -51.036326 58.151037 -38.578998 0.090304 -0.896468 0.055520 0.459024 -27.384531 0.997186 -61.279492 -83.843498 112.969383 -8.499241 -59.009544 16.946792 -0.345875 -5.731843 2.357746 -38.510491 -2.186921 -95.528407 1.647275 7.484312 -30.337642 -20.796613 -2.679690 97.387010 9.692886 -1.286712 19.513750 12.041834 -1.645552 -29.931405 -24.334348 -46.601771 21.132464
55.860546 40.035903 0.009719 -0.845411 49.486372 -0.397695 0.000000 0.000000 0.000000 40.335104 73.450340 30.630583 102.970928 65.400674 109.452592 -49.756263 58.922309 -37.745791 0.055033 -0.809822 0.043113 0.599727 -27.596028 1.053557 -65.689508 -84.315167 115.692273 -8.720986 -59.532116 16.739253 -0.338745 -5.327284 2.158784 -37.453979 -2.701716 -95.167186 1.973427 7.510421 -30.668328 -20.898564 -1.547734 97.491653 7.804955 -4.317061 16.219057 9.984743 -1.091594 -29.232768 -23.663204 -43.572093 21.645496
55.859816 40.025681 0.010132 -0.912598 49.239711 -0.423457 0.000000 0.000000 0.000000 41.840799 73.124010 31.637360 105.057865 64.321643 110.922378 -48.755269 59.364342 -37.009186 0.029773 -0.753774 0.034274 0.784670 -27.516022 1.083016 -67.832594 -84.765908 116.704603 -8.872208 -60.027929 16.504907 -0.324940 -4.992526 1.969651 -36.963499 -3.125321 -95.009005 2.251050 7.316758 -30.221887 -20.883842 -0.397832 97.212872 6.514326 -6.405856 13.987686 8.858783 -0.981625 -29.447775 -24.294326 -43.123365 21.797799
55.865780 40.040690 0.010769 -0.951934 49.058779 -0.437921 0.000000 0.000000 0.000000 43.448718 72.796108 32.718162 106.593254 63.293535 111.824521 -47.910190 59.754823 -36.405568 0.013569 -0.767201 0.029629 0.896535 -27.223553 1.078568 -70.933339 -85.071173 118.800946 -9.043339 -60.458031 16.347618 -0.315495 -4.684242 1.817097 -36.388322 -3.427960 -94.793705 2.549066 7.119708 -29.543842 -21.187485 0.546426 97.012269 5.534378 -7.662957 12.190922 8.297039 -1.323347 -29.593187 -26.591362 -43.280132 23.662174
55.872795 40.047088 0.011313 -0.954906 48.636486 -0.433967 0.000000 0.000000 0.000000 45.093731 72.414621 33.789361 107.626583 62.418243 112.058190 -46.660129 60.091290 -35.582901 0.007980 -0.770169 0.026867 0.962873 -26.601632 1.030999 -77.561312 -85.175264 124.119706 -9.353205 -61.051287 16.390464 -0.315182 -4.518882 1.719504 -35.575410 -3.668345 -94.498099 2.919907 6.973089 -28.930937 -21.677974 1.523429 96.359517 4.724763 -8.222030 10.563663 7.884467 -1.959811 -29.176061 -26.883610 -41.096788 24.548742
55.881125 40.048119 0.011202 -0.936243 48.041649 -0.419265 0.000000 0.000000 0.000000 46.678584 72.223525 34.928959 108.166286 61.841817 111.926880 -45.663379 60.657594 -35.018868 0.010665 -0.728731 0.025003 1.011586 -26.425507 0.961525 -86.883208 -85.100365 131.923276 -9.810318 -61.815447 16.623752 -0.309240 -4.452534 1.627599 -34.374581 -3.837819 -93.934135 3.250183 7.212223 -29.578744 -22.062744 2.581040 95.846993 4.199795 -8.678845 9.778836 7.972951 -2.480323 -29.636188 -27.135875 -39.401946 25.079191
55.890805 40.050465 0.011238 -0.905320 47.694671 -0.401870 0.000000 0.000000 0.000000 47.884340 72.154728 35.845032 108.557260 61.550160 111.767758 -44.927447 61.070288 -34.572120 0.014956 -0.704711 0.024085 1.047746 -26.296419 0.891381 -95.293299 -85.024417 139.195841 -10.377072 -62.655188 17.018140 -0.303407 -4.428518 1.550486 -33.442407 -3.957454 -93.537769 3.606323 7.283518 -29.624936 -22.615402 3.369131 95.386343 3.796138 -8.896037 9.125077 8.007043 -2.956977 -29.797630 -26.934342 -37.947110 25.064054
55.901024 40.041929 0.011633 -0.855938 47.384302 -0.377149 0.000000 0.000000 0.000000 48.906553 71.957031 36.530565 109.135459 61.307548 111.554377 -43.549722 61.447712 -33.590937 0.014868 -0.671515 0.021624 1.088285 -26.160106 0.820957 -103.587179 -84.744609 146.106981 -11.080328 -63.489659 17.533493 -0.302103 -4.418693 1.488422 -32.569488 -3.898945 -93.304158 3.843947 7.428319 -30.056857 -22.878435 4.130772 95.207831 3.438119 -8.866430 8.555685 7.897770 -3.380034 -29.508276 -26.130972 -36.537693 24.503050
55.908692 40.044501 0.011713 -0.784203 47.487888 -0.345870 0.000000 0.000000 0.000000 49.538414 71.513303 36.747286 109.511932 61.038891 111.041925 -41.756058 61.544300 -32.193587 0.010009 -0.607266 0.017373 1.117534 -26.104370 0.759530 -108.394812 -84.558533 149.735871 -11.417593 -63.845190 17.615965 -0.312157 -4.422945 1.460380 -31.923843 -3.815483 -93.195410 3.998834 7.543071 -30.472920 -23.005231 4.623370 95.206028 3.167416 -8.793473 8.135498 7.761029 -3.679396 -29.181993 -25.203409 -35.296286 23.818693
55.928448 40.045553 0.011626 -0.697045 47.673622 -0.308215 0.000000 0.000000 0.000000 49.740366 71.160201 36.685206 109.431896 60.684798 110.730506 -40.283729 61.557771 -30.999095 0.007589 -0.572194 0.014562 1.140904 -25.967001 0.698529 -111.113819 -84.513646 151.605833 -11.502735 -63.906732 17.414584 -0.330148 -4.502727 1.464095 -31.347537 -3.746307 -92.942089 4.162966 7.581154 -30.441087 -23.346387 4.824100 95.044577 2.998612 -8.798369 7.971361 7.537490 -3.606684 -29.214746 -25.965346 -36.437978 24.113840
55.949965 40.046626 0.011700 -0.604782 47.902098 -0.268308 0.000000 0.000000 0.000000 49.721454 70.861022 36.485149 109.294253 60.361881 110.564534 -38.736292 61.317104 -29.726845 0.006470 -0.535069 0.012403 1.152542 -25.793584 0.645486 -111.732169 -84.561313 151.594649 -11.352554 -63.677067 16.988376 -0.352361 -4.645857 1.492946 -31.083574 -3.648244 -92.965412 4.312131 7.446263 -29.933447 -23.639499 5.209001 94.935872 2.853295 -8.741804 7.778296 7.387497 -3.686669 -29.068118 -26.248455 -36.528857 24.417926
55.950081 40.053868 0.011922 -0.507109 47.817050 -0.224776 0.000000 0.000000 0.000000 49.779861 70.466132 36.284249 109.553500 59.931540 110.554675 -36.848844 60.613841 -28.290687 0.017187 -0.432526 0.013166 1.157588 -25.657328 0.533277 -111.698899 -84.554765 151.012042 -11.263934 -63.354619 16.631942 -0.390940 -4.888267 1.571304 -30.938633 -3.540290 -93.003844 4.384916 7.349111 -29.544688 -23.826618 5.541624 94.968769 2.643333 -8.376032 7.207512 7.182956 -4.171416 -28.343647 -26.426002 -35.993539 24.868519
